HIERARCHY
ROOT joint_Root
{
	OFFSET 0.0 0.0 0.0
	CHANNELS 6 Xposition Yposition Zposition Zrotation Xrotation Yrotation 
	JOINT Hips
	{
		OFFSET 4.5925 91.4895 -427.239
		CHANNELS 6 Xposition Yposition Zposition Zrotation Xrotation Yrotation 
		JOINT Spine
		{
			OFFSET 15.7357 0.0 0.0
			CHANNELS 6 Xposition Yposition Zposition Zrotation Xrotation Yrotation 
			JOINT Chest
			{
				OFFSET 8.98455 -0.406207 0.0
				CHANNELS 6 Xposition Yposition Zposition Zrotation Xrotation Yrotation 
				JOINT Neck
				{
					OFFSET 16.3773 0.0 0.0
					CHANNELS 6 Xposition Yposition Zposition Zrotation Xrotation Yrotation 
					JOINT Head
					{
						OFFSET 6.45672 0.0 0.0
						CHANNELS 6 Xposition Yposition Zposition Zrotation Xrotation Yrotation 
						End Site
						{
							OFFSET 0.0 0.0 0.0
						}
					}
				}
				JOINT Shoulder_L
				{
					OFFSET 12.9942 -0.242716 4.98039
					CHANNELS 6 Xposition Yposition Zposition Zrotation Xrotation Yrotation 
					JOINT UpperArm_L
					{
						OFFSET 5.34809 0.0 0.0
						CHANNELS 6 Xposition Yposition Zposition Zrotation Xrotation Yrotation 
						JOINT LowerArm_L
						{
							OFFSET 24.3286 1.87007e-05 0.0
							CHANNELS 6 Xposition Yposition Zposition Zrotation Xrotation Yrotation 
							JOINT Hand_L
							{
								OFFSET 22.2916 0.0 0.0
								CHANNELS 6 Xposition Yposition Zposition Zrotation Xrotation Yrotation 
								End Site
								{
									OFFSET 0.0 0.0 0.0
								}
							}
						}
					}
				}
				JOINT Shoulder_R
				{
					OFFSET 12.9945 -0.242716 -4.98039
					CHANNELS 6 Xposition Yposition Zposition Zrotation Xrotation Yrotation 
					JOINT UpperArm_R
					{
						OFFSET -5.34813 0.0 0.0
						CHANNELS 6 Xposition Yposition Zposition Zrotation Xrotation Yrotation 
						JOINT LowerArm_R
						{
							OFFSET -24.3289 0.000322201 0.0
							CHANNELS 6 Xposition Yposition Zposition Zrotation Xrotation Yrotation 
							JOINT Hand_R
							{
								OFFSET -22.2915 -0.000108084 0.0
								CHANNELS 6 Xposition Yposition Zposition Zrotation Xrotation Yrotation 
								End Site
								{
									OFFSET 0.0 0.0 0.0
								}
							}
						}
					}
				}
			}
		}
		JOINT UpperLeg_L
		{
			OFFSET -2.19248 -6.46944 0.0
			CHANNELS 6 Xposition Yposition Zposition Zrotation Xrotation Yrotation 
			JOINT LowerLeg_L
			{
				OFFSET 39.0811 0.0 -1.23785e-05
				CHANNELS 6 Xposition Yposition Zposition Zrotation Xrotation Yrotation 
				JOINT Foot_L
				{
					OFFSET 40.9854 0.0 -1.26872e-05
					CHANNELS 6 Xposition Yposition Zposition Zrotation Xrotation Yrotation 
					JOINT Toes_L
					{
						OFFSET 11.7543 0.0 0.0
						CHANNELS 6 Xposition Yposition Zposition Zrotation Xrotation Yrotation 
						End Site
						{
							OFFSET 0.0 0.0 0.0
						}
					}
				}
			}
		}
		JOINT UpperLeg_R
		{
			OFFSET -2.19251 6.46944 0.0
			CHANNELS 6 Xposition Yposition Zposition Zrotation Xrotation Yrotation 
			JOINT LowerLeg_R
			{
				OFFSET -39.0811 -0.00228153 -0.0401928
				CHANNELS 6 Xposition Yposition Zposition Zrotation Xrotation Yrotation 
				JOINT Foot_R
				{
					OFFSET -40.9854 0.0 0.0
					CHANNELS 6 Xposition Yposition Zposition Zrotation Xrotation Yrotation 
					JOINT Toes_R
					{
						OFFSET -11.7543 0.0 0.0
						CHANNELS 6 Xposition Yposition Zposition Zrotation Xrotation Yrotation 
						End Site
						{
							OFFSET 0.0 0.0 0.0
						}
					}
				}
			}
		}
	}
}
MOTION
Frames:	4
Frame Time:	0.0333333
0.000000 0.000000 0.000000 0.000000 0.000000 -0.000000 -1.110580 83.987300 -0.043517 89.014900 -8.074040 11.454600 15.735700 0.000005 -0.000001 82.804400 79.966700 -82.441000 8.984550 -0.406207 -0.000000 12.158800 -2.477190 0.990462 16.377300 -0.000001 -0.000001 -3.039320 -0.010846 1.563630 6.456720 -0.000001 -0.000000 -5.790680 5.796210 -4.074200 12.994200 -0.242716 4.980390 -91.557600 5.338380 -73.708200 5.348090 -0.000007 -0.000001 -58.489000 36.012600 -17.103000 24.328600 0.000019 0.000005 9.606120 15.021900 -33.144700 22.291600 -0.000001 0.000005 12.070100 5.280060 0.624115 12.994500 -0.242716 -4.980390 87.607600 11.059200 -77.712800 -5.348130 -0.000001 -0.000004 -61.255300 17.738800 -14.276300 -24.328900 0.000322 -0.000009 -2.347110 -10.566900 -12.582300 -22.291500 -0.000108 -0.000004 1.661190 5.269860 0.962558 -2.192480 -6.469440 -0.000000 -172.337000 -14.273900 -10.600500 39.081100 -0.000007 -0.000012 -0.401487 0.263351 56.738500 40.985400 -0.000006 -0.000013 -0.071934 4.222980 -83.790800 11.754300 -0.000000 0.000003 -0.000304 -0.002631 -16.675500 -2.192510 6.469440 -0.000001 177.682000 9.002470 168.032000 -39.081100 -0.002282 -0.040193 0.055152 -0.033454 57.213200 -40.985400 0.000008 0.000006 8.138000 6.486330 -83.785100 -11.754300 -0.000006 -0.000006 -0.160215 -0.207977 -17.416000
0.000000 0.000000 0.000000 0.000000 0.000000 -0.000000 -1.760690 84.950200 0.523517 88.561400 -5.709260 11.423900 15.735700 0.000005 -0.000001 82.390100 80.755700 -82.904700 8.984550 -0.406207 -0.000000 10.556000 -2.443950 -0.803078 16.377300 -0.000001 -0.000001 -1.907440 -0.338877 1.479820 6.456720 -0.000001 -0.000000 -4.589480 4.529210 -2.326650 12.994200 -0.242716 4.980390 -91.640300 5.422550 -73.141300 5.348090 -0.000007 -0.000001 -59.223500 34.211500 -16.129600 24.328600 0.000019 0.000005 9.267510 15.716400 -31.064000 22.291600 -0.000001 0.000005 12.082100 5.227510 2.019240 12.994500 -0.242716 -4.980390 87.791900 9.692070 -77.099700 -5.348130 -0.000001 -0.000004 -59.427400 7.630000 -15.003400 -24.328900 0.000322 -0.000009 -0.382488 -3.690750 -5.882740 -22.291500 -0.000108 -0.000004 -8.836100 5.094140 5.277820 -2.192480 -6.469440 -0.000000 -171.643000 -12.688100 -9.093780 39.081100 -0.000007 -0.000012 -0.379030 0.277989 53.743700 40.985400 -0.000006 -0.000013 -0.174524 5.338480 -82.429900 11.754300 -0.000000 0.000003 -0.000267 -0.002361 -16.665800 -2.192510 6.469440 -0.000001 178.135000 10.935600 170.412000 -39.081100 -0.002282 -0.040193 0.058622 -0.040295 53.965400 -40.985400 0.000008 0.000006 8.026040 6.101590 -82.545900 -11.754300 -0.000006 -0.000006 -0.319672 -0.398982 -17.554700
0.000000 0.000000 0.000000 0.000000 0.000000 -0.000000 -2.356180 86.794100 1.134650 88.441900 -3.340210 10.333500 15.735700 0.000005 -0.000001 80.113400 82.019500 -81.849800 8.984550 -0.406207 -0.000000 7.925590 -2.731330 -3.280570 16.377300 -0.000001 -0.000001 0.108625 -0.746277 1.524780 6.456720 -0.000001 -0.000000 -3.311270 2.859850 -0.042845 12.994200 -0.242716 4.980390 -91.663800 5.149320 -72.066500 5.348090 -0.000007 -0.000001 -59.981700 32.485900 -14.063900 24.328600 0.000019 0.000005 8.145870 15.011400 -28.926100 22.291600 -0.000001 0.000005 11.501000 5.214410 2.354610 12.994500 -0.242716 -4.980390 88.091700 7.848130 -76.287400 -5.348130 -0.000001 -0.000004 -55.611900 -8.246980 -18.320100 -24.328900 0.000322 -0.000009 -0.004948 -0.457484 -0.475550 -22.291500 -0.000108 -0.000004 -9.825710 4.927530 8.813890 -2.192480 -6.469440 -0.000000 -171.716000 -11.043200 -7.165670 39.081100 -0.000007 -0.000012 -0.329872 0.302611 47.468700 40.985400 -0.000006 -0.000013 -0.561462 6.068580 -79.388100 11.754300 -0.000000 0.000003 -0.000220 -0.002005 -16.653000 -2.192510 6.469440 -0.000001 178.551000 12.534500 173.029000 -39.081100 -0.002282 -0.040193 0.055850 -0.047779 47.746200 -40.985400 0.000008 0.000006 7.804590 5.709270 -79.567000 -11.754300 -0.000006 -0.000006 -0.411487 -0.510454 -17.938000
0.000000 0.000000 0.000000 0.000000 0.000000 -0.000000 -2.743200 88.694800 1.490430 88.500000 -1.651810 7.884410 15.735700 0.000005 -0.000001 76.746900 83.798900 -79.683300 8.984550 -0.406207 -0.000000 4.246260 -2.748680 -5.765020 16.377300 -0.000001 -0.000001 2.836100 -0.867615 1.341940 6.456720 -0.000001 -0.000000 -2.103540 1.298160 2.198340 12.994200 -0.242716 4.980390 -91.480400 4.213040 -70.618800 5.348090 -0.000007 -0.000001 -60.765600 31.600300 -11.331700 24.328600 0.000019 0.000005 7.513840 14.617600 -27.593400 22.291600 -0.000001 0.000005 10.167100 5.236330 1.790850 12.994500 -0.242716 -4.980390 88.438900 6.333320 -76.123200 -5.348130 -0.000001 -0.000004 -49.176700 -24.423500 -23.214000 -24.328900 0.000322 -0.000009 -0.004889 -2.293640 -0.072063 -22.291500 -0.000108 -0.000004 -1.880430 4.957840 8.236880 -2.192480 -6.469440 -0.000000 -172.289000 -10.060300 -6.174740 39.081100 -0.000007 -0.000012 -0.259622 0.307839 40.143800 40.985400 -0.000006 -0.000013 -1.034120 6.379510 -75.679600 11.754300 -0.000000 0.000003 -0.000154 -0.001485 -16.634000 -2.192510 6.469440 -0.000001 179.056000 13.917700 174.126000 -39.081100 -0.002282 -0.040193 0.046713 -0.050056 40.950800 -40.985400 0.000008 0.000006 7.505600 6.036550 -75.572600 -11.754300 -0.000006 -0.000006 -0.668974 -0.812776 -18.585300
